<svg width="1280" height="720" viewBox="0 0 1280 720" fill="none" xmlns="http://www.w3.org/2000/svg">
  <rect width="1280" height="720" rx="36" fill="#ECFEF4"/>
  <rect x="32" y="32" width="1216" height="656" rx="28" fill="url(#bg)"/>
  <rect x="124" y="84" width="320" height="552" rx="48" fill="#0F172A" fill-opacity="0.92"/>
  <rect x="160" y="132" width="248" height="60" rx="18" fill="#FFFFFF" fill-opacity="0.1"/>
  <rect x="160" y="224" width="248" height="138" rx="24" fill="#34D399" fill-opacity="0.22"/>
  <rect x="160" y="390" width="248" height="200" rx="24" fill="#FFFFFF" fill-opacity="0.08"/>
  <rect x="500" y="120" width="624" height="200" rx="28" fill="#FFFFFF" fill-opacity="0.9"/>
  <rect x="500" y="352" width="300" height="232" rx="28" fill="#FFFFFF" fill-opacity="0.9"/>
  <rect x="824" y="352" width="300" height="232" rx="28" fill="#0F172A" fill-opacity="0.84"/>
  <text x="84" y="68" fill="#065F46" font-size="28" font-family="Segoe UI, Arial, sans-serif">template-uniapp-mini</text>
  <text x="188" y="172" fill="#FFFFFF" font-size="26" font-family="Segoe UI, Arial, sans-serif">Login</text>
  <text x="188" y="286" fill="#0F172A" font-size="24" font-family="Segoe UI, Arial, sans-serif">Home</text>
  <text x="188" y="442" fill="#D1D5DB" font-size="22" font-family="Segoe UI, Arial, sans-serif">Profile</text>
  <text x="540" y="194" fill="#0F172A" font-size="34" font-family="Segoe UI, Arial, sans-serif">Miniapp Shell Preview</text>
  <text x="540" y="238" fill="#475569" font-size="20" font-family="Segoe UI, Arial, sans-serif">Shared JWT login, Weixin and Toutiao builds, and lightweight startup delivery.</text>
  <text x="540" y="430" fill="#0F172A" font-size="26" font-family="Segoe UI, Arial, sans-serif">Weixin Build</text>
  <text x="864" y="430" fill="#FFFFFF" font-size="26" font-family="Segoe UI, Arial, sans-serif">Toutiao Build</text>
  <defs>
    <linearGradient id="bg" x1="32" y1="32" x2="1248" y2="688" gradientUnits="userSpaceOnUse">
      <stop stop-color="#A7F3D0"/>
      <stop offset="1" stop-color="#60A5FA"/>
    </linearGradient>
  </defs>
</svg>
